<?xml version="1.0" encoding="utf-8"?>
<!-- Generator: Adobe Illustrator 19.2.1, SVG Export Plug-In . SVG Version: 6.00 Build 0)  -->
<svg version="1.1" id="Layer_1" xmlns="http://www.w3.org/2000/svg" xmlns:xlink="http://www.w3.org/1999/xlink" x="0px" y="0px"
	 width="261px" height="83px" viewBox="0 0 261 83" style="enable-background:new 0 0 261 83;" xml:space="preserve">
<style type="text/css">
	.st0{fill:#BBBDBF;}
</style>
<g>
	<g>
		<path class="st0" d="M69.1,51.7c0.6-0.8,1.3-1.3,2.1-1.5c0.4-0.1,0.7-0.2,1.1-0.2c-0.1-0.1-0.2-0.2-0.3-0.3
			c-0.2-0.2-0.3-0.3-0.5-0.5c-1.5-1.4-3.3-3-4.3-5.1c-0.3,0.7-0.7,1.4-1.6,2c0.6,0.5,1.7,1.6,2.6,3.2C68.7,50,69,50.9,69.1,51.7z"/>
		<path class="st0" d="M41.4,34.7c0.3,2.3,1.3,2.5,3.3,2.8c1,0.2,2.1,0.3,3.4,0.9c2.4,0.9,4.3,2.5,6.1,4c1.4,1.1,2.7,2.2,4.1,2.9
			c1.2,0.5,2.8,0.7,3.6,0.7c2.2,0,3.4-0.8,3.9-1.7c-0.6,0.3-1.3,0.5-2.3,0.5c-0.3,0-0.6,0-0.9-0.1c-3.6-0.4-4.9-1.9-7.1-4.5
			c-0.9-1.1-2-2.4-3.6-3.9c-2.6-2.6-6.3-4.5-8.6-4.5c-0.7,0-1.2,0.2-1.5,0.5c-0.2,0.2-0.3,0.5-0.4,0.8
			C41.3,33.4,41.4,34.3,41.4,34.7z"/>
		<path class="st0" d="M62.3,50.2c0.6,0,1.2,0.2,1.7,0.5c-0.8-1.5-2-3-4.7-4.1c-0.1,0-0.2-0.1-0.4-0.1c0.4,0.4,0.8,0.9,1,1.5
			c0.3,0.8,0.2,1.8,0,2.6C60.7,50.4,61.6,50.2,62.3,50.2z"/>
		<path class="st0" d="M43.4,30.6c2.6,0,6.5,2,9.4,4.8c1.6,1.6,2.7,2.9,3.7,4c2.1,2.5,3.2,3.8,6.4,4.1c0.3,0,0.5,0,0.8,0
			c1.5,0,2.3-0.5,2.6-0.9c-0.3,0.1-0.7,0.2-1.2,0.2c-0.3,0-0.5,0-0.9-0.1c-2.2-0.4-4.3-2.4-6.3-5.8c-3.3-5.6-7.8-9.1-11.9-9.3
			c-1.7-0.1-2.9,0.3-3.6,1.1c-0.6,0.7-0.7,1.5-0.6,2.1C42.2,30.7,42.7,30.6,43.4,30.6z"/>
		<path class="st0" d="M48,50.9c-0.5,0.6-1,1.1-1.2,2.3c-0.2,0.8-0.1,1.7,0,2.4c0.1,0.2,0.1,0.4,0.2,0.6c0.6-1.3,1.6-2.6,2.5-3.9
			c1-1.4,2.1-2.9,2.3-3.8c0.2-1,0-1.8-0.3-2.4c-0.3-0.4-0.9-0.7-1.6-0.7c-0.4,0-0.8,0-1.1,0c0.2,0.2,0.3,0.4,0.5,0.6
			c0.5,0.9,0.5,2,0.1,3.1C48.8,49.9,48.4,50.4,48,50.9z"/>
		<path class="st0" d="M54,53.4c-0.7,0.9-1.3,1.7-1.7,2.7c0.7-0.6,1.5-0.9,2.4-0.9c1,0,2,0.3,2.8,0.7l0,0c0-0.7,0-1.4,0.3-2.2
			c0.1-0.4,0.5-1.3,0.5-1.3c0.3-0.7,1.1-2.8,0.7-3.8c-0.5-1.3-1.8-2-2.8-2.4c0.3,0.7,0.3,1.5,0.2,2.2C56.3,50.4,55.1,52,54,53.4z"/>
		<path class="st0" d="M11.5,32.6c1.1,1.2,2.6,3.4,3.2,6.9c0,0.3,0.1,0.5,0.1,0.8c0.5-1.2,1-3,0.7-5.2c-0.3-1.7-1-2.7-1.4-3.2
			C13.3,32.3,12.5,32.6,11.5,32.6z"/>
		<path class="st0" d="M15.7,30.6c-0.2,0.3-0.5,0.5-0.8,0.7c0.5,0.5,1.1,1.5,1.5,3.1c0.2-0.8,0.3-1.7,0.2-2.4
			c-0.1-0.8-0.3-1.4-0.5-1.9C16,30.3,15.9,30.4,15.7,30.6z"/>
		<path class="st0" d="M23.4,46.2c-0.7,0.2-1.2,0.6-1.4,0.8c0.5,0.7,1,1.8,1.3,3c0.3-1.3,0.8-2.6,1.7-3.7
			C24.7,46.2,24.1,46,23.4,46.2z"/>
		<path class="st0" d="M44.4,50.1c-0.1,0.2-0.3,0.5-0.4,0.6c0,0,0,0,0,0.1c0.5,0.7,1.1,1.5,1.6,2.4c0-0.1,0-0.2,0.1-0.3
			c0.3-1.4,0.9-2.1,1.5-2.7c0.4-0.5,0.8-0.9,1.1-1.6c0.3-0.8,0.3-1.5,0-2.1c-0.4-0.6-1-1-1.8-1.1c-0.6-0.1-1.1,0.1-1.3,0.2
			c0.3,0.5,0.4,1.2,0.3,2C45.3,48.8,44.8,49.6,44.4,50.1z"/>
		<path class="st0" d="M25.4,66.3c0.7-0.2,1.5-0.2,2.2-0.1c0.7,0.1,1.2,0.4,1.6,0.6c-0.5-1.4-1.3-3-2.2-4.9c-2-4-3.3-6.8-3.7-8.9
			c-0.4,1.3-1.2,2.4-1.9,3.1c0.4,0.1,0.8,0.3,1.2,0.6c0.7,0.5,1.9,1.7,2,4.2c0.1,1.8-0.7,3.2-1.9,4.3C23.8,65.3,24.9,65.8,25.4,66.3
			z"/>
		<path class="st0" d="M19.6,42.8c3.3-0.4,4.1-1.4,5.9-3.7c0.9-1.1,2-2.4,3.6-4.1c2.7-2.7,6.5-4.6,9.1-4.6c0.7,0,1.3,0.1,1.8,0.4
			c0-0.6,0-1.5-0.6-2.1c-0.7-0.8-1.9-1.1-3.6-1c-4.4,0.3-8.7,3.7-12,9.2c-1.9,3.2-4,5-6.1,5.4c-0.3,0-0.5,0.1-0.8,0.1
			c-0.3,0-0.7,0-0.9-0.1c0.7,0.3,1.6,0.6,2.7,0.6C19,42.9,19.3,42.8,19.6,42.8z"/>
		<path class="st0" d="M20.7,45.6c0.6,0,1.5-0.1,2.8-0.5c1.3-0.4,2.9-1.7,4.3-2.9c1.6-1.4,3.3-2.9,5.8-3.9c1.3-0.5,2.5-0.7,3.4-0.9
			c2-0.3,3-0.5,3.3-2.8c0-0.2,0.1-1.2,0-1.6c-0.1-0.4-0.2-0.7-0.4-0.9c-0.4-0.4-0.9-0.6-1.7-0.6c-2.3,0-5.8,1.8-8.3,4.3
			c-1.6,1.6-2.7,2.9-3.6,4c-1.9,2.3-2.9,3.6-6.6,4.1c-0.4,0-0.7,0.1-1.1,0.1c-1.1,0-2-0.2-2.8-0.5C16.8,44.5,18.3,45.6,20.7,45.6z"
			/>
		<path class="st0" d="M17.1,54.9c-1.5,1.5-3,3.1-3,6.1c0,2,0.9,3.1,1.6,3.7c1,0.9,2.6,1.3,4.4,0.8c2.1-0.6,3.6-2.5,3.4-4.6
			c-0.1-2-1-3-1.6-3.4c-0.6-0.5-1.2-0.6-1.6-0.5c-1.6,0.4-2.3,1.7-2.1,2.8c0,0.3,0.3,1.2,1.4,1.1c0.3,0,0.6,0.2,0.6,0.5
			c0,0.3-0.2,0.6-0.5,0.6c-1.3,0.1-2.3-0.7-2.6-2c-0.2-1.5,0.6-3.3,2.7-3.9c0.1-0.1,0.1-0.1,0.2-0.2c0.8-0.8,2.4-2.3,2.3-4.5
			c0-2.4-2-4.7-2-4.7c0,0,0,0,0,0c-0.8,0-1.5-0.2-2.1-0.4c0.6,1.2,1.3,2.8,1.3,4.3C19.5,52.4,18.3,53.6,17.1,54.9z"/>
		<path class="st0" d="M72.7,34.4c1.8-0.7,2.9-2.1,3-3.7c0.1-2.4-0.9-5.4-2.4-7.5c-2.4-3.3-2.1-5-1.3-5.9c-0.6-0.7-1.2-1.7-1.4-3.3
			c-0.4,0.4-0.8,1.1-1,2.5c-0.5,3.4,0.9,5.7,2.2,7.7c0.8,1.3,1.6,2.5,1.6,3.9c0,2.4-1.2,3.1-1.8,3.2c-0.2,0.1-0.5,0.1-0.7,0.1
			c-0.8,0-1.6-0.4-2.1-1.1c-0.5-0.7-0.4-1.6,0.3-2.4c0.2-0.2,0.5-0.2,0.8-0.1c0.2,0.2,0.2,0.5,0.1,0.8c-0.3,0.4-0.4,0.7-0.2,1.1
			c0.3,0.5,1,0.7,1.5,0.5c0.7-0.2,1-1,1-2.2c0-0.4-0.1-0.9-0.3-1.3c0,0,0,0,0,0c-0.3-0.6-1.1-1.4-2.1-1.6c-0.9-0.1-1.9,0.2-2.8,1.1
			c-1.8,1.9-1.7,5,0.2,7C68.8,35,71.1,35,72.7,34.4z"/>
		<path class="st0" d="M69.9,24.2c0.2,0,0.3,0.1,0.5,0.1c-0.9-1.5-1.8-3.2-2-5.4c-0.4,0.5-1,1.4-1.1,2.9c-0.2,1.7,0.2,2.6,0.3,2.9
			C68.5,24.1,69.3,24.1,69.9,24.2z"/>
		<path class="st0" d="M67.8,35.1c-0.5-0.3-1-0.6-1.5-1.1c-0.2-0.2-0.5-0.5-0.6-0.8c-0.2,0.5-0.5,1.6-0.3,3.4
			c0.1,1.5,0.5,2.6,0.9,3.2C66.4,37.4,67.2,35.9,67.8,35.1z"/>
		<path class="st0" d="M76,9.8c0.1,0,0.2-0.1,0.4-0.1c0.6-0.1,1.3-0.1,2,0c0.2-0.3,0.5-0.9,0.5-1.8c0-0.5-0.2-1-0.3-1.3
			c-0.5,0.8-1.1,1.5-1.6,2.1C76.6,9.1,76.3,9.4,76,9.8z"/>
		<path class="st0" d="M67.3,49.7c-1-1.9-2.4-3-2.7-3.2c-0.6,0.2-1.4,0.4-2.3,0.4c1.8,1.3,2.7,3,3.3,4.6c0.6,1.6,0.6,3,0,3.9
			c-0.4,0.7-1.1,1.1-2,1.2c-0.1,0-0.2,0-0.3,0c-1.3,0-2-1.2-2.1-1.9c-0.1-0.3,0.1-0.6,0.4-0.6c0.3-0.1,0.6,0.1,0.6,0.4
			c0,0.1,0.3,1.2,1.2,1c0.6-0.1,1-0.3,1.2-0.7c0.2-0.3,0.3-0.7,0.3-1.2c-0.2-1.7-1.7-2.3-2.7-2.4c-1.2-0.1-2.8,0.6-3.4,2.6
			c-0.5,1.7-0.2,3.1,0.6,4.1c0.9,1.2,2.4,1.7,3.6,1.7c1.9,0,5-1.7,5.3-4.7C68.5,52.7,68.2,51.5,67.3,49.7z"/>
		<path class="st0" d="M74.2,5C74.3,5,74.3,4.9,74.2,5c0.6-0.7,1.3-1.4,1.7-1.9c0-0.1-0.2-0.6-0.7-1.3C75,1.3,74.2,0.7,73.1,0
			c0.5,1,1.1,2.2,1.1,3.4C74.3,4,74.3,4.5,74.2,5z"/>
		<polygon class="st0" points="75.9,3.2 75.9,3.2 75.9,3.2 		"/>
		<path class="st0" d="M67.9,62.3C67.9,62.3,67.9,62.3,67.9,62.3c-0.5-0.9-0.8-2-1-2.7c-0.8,0.6-1.7,1-2.6,1.2
			C64.9,61.3,66.1,62,67.9,62.3z"/>
		<path class="st0" d="M33.4,46.2c-0.8,0.6-1.7,1.7-1.7,3.6c-0.1,2.2,1.7,4.2,2.4,5c0.5-0.5,1.2-0.8,1.9-1c-1.3-1.2-2.2-2.6-2-5.2
			c0.1-1.3,0.8-2.4,1.6-3.1c-0.1,0-0.1,0-0.2,0C35.2,45.3,34.3,45.4,33.4,46.2z"/>
		<path class="st0" d="M37.8,45.4c-0.7,0-2.6,1.2-2.8,3.1c-0.2,2.4,0.5,3.4,2.3,4.9c0,0,0,0,0,0c1-0.1,2,0.1,2.8,0.3
			c0,0-0.1-0.1-0.1-0.1c-1.2-1.3-2.5-2.7-2.6-4.7c-0.1-1.5,0.3-2.7,0.8-3.5C38.2,45.4,38,45.4,37.8,45.4z"/>
		<path class="st0" d="M41.9,47.3c0,0.5,0.7,1.4,1.4,2.5c0.1-0.1,0.1-0.2,0.2-0.3c0.4-0.5,0.8-1.1,0.9-2c0.1-1.5-0.5-1.9-1.2-2.2
			c-0.3-0.1-0.7,0-1,0.1l0,0c0,0,0,0,0,0C42.2,45.4,41.8,45.8,41.9,47.3z"/>
		<path class="st0" d="M31.9,45.3c-1.4,0-2.8,1.6-3.4,3.2c-0.7,1.7-0.5,3.7,0.6,5.8c0.5,0.9,1.8,3.3,3,5.4c0-1.7,0.4-3.1,1.2-4.2
			c-0.8-0.8-2.8-3.2-2.7-5.8c0.1-2.3,1.4-3.6,2.3-4.3C32.7,45.3,32.3,45.3,31.9,45.3C31.9,45.3,31.9,45.3,31.9,45.3z"/>
		<path class="st0" d="M54.5,69.2c-1-0.4-2.4-1.2-4-2.2c-2-1.3-3-3.3-3.5-4.9c-0.3,0.7-0.6,1.3-1.1,1.9c0,0,0,0.1,0,0.1
			c0,0,0.5,3.1,4.5,5.8c0.8,0.6,1.4,1.2,1.9,1.9c0,0,0,0,0,0C52.8,70.5,53.6,69.6,54.5,69.2z"/>
		<path class="st0" d="M44.8,63.4c1-1,1.5-2.4,1.6-4.1c0-0.3,0-0.7,0-1c-0.2-2.7-2.1-5.4-3.6-7.5c-1-1.4-1.8-2.6-1.9-3.4
			c-0.1-1,0.1-1.7,0.2-2.1c-0.2,0-0.5,0-0.8,0c-0.9,0.1-1.8,1.5-1.7,3.6c0.1,1.6,1.2,2.8,2.3,4c1.3,1.5,2.7,3,2.6,5.3
			c0,0.4-0.1,0.9-0.2,1.2c-0.3,1.2-1.1,2.1-2.1,2.5c-0.4,0.2-0.9,0.3-1.3,0.3c-0.8,0-1.7-0.3-2.3-0.9c-0.9-0.7-1.1-1.8-0.8-2.9
			c0.2-0.7,0.8-1.4,1.4-1.5c0.3,0,0.6,0.2,0.6,0.5c0,0.3-0.2,0.4-0.5,0.6c-0.1,0-0.4,0.4-0.5,0.9c-0.1,0.4-0.1,1,0.5,1.6
			c0.7,0.6,1.7,0.8,2.6,0.4c0.2-0.1,0.4-0.2,0.5-0.3c0,0,0,0,0-0.1c0,0,0.6-0.6,0.9-1.4c0.1-0.3,0.1-0.5,0.1-0.8c0,0,0-0.1,0-0.1
			c0-0.1,0-0.2,0-0.3c-0.5-3-2.9-3.5-4.9-3.4c0,0-0.2,0-0.3,0c-1.1,0.1-2,0.6-2.7,1.3c-0.9,1-1.3,2.7-1.2,4.6c0.2,2.4,1.9,5,6.1,5
			C41.7,65.4,43.6,64.7,44.8,63.4z"/>
		<path class="st0" d="M35.8,69.9c1.2-1.2,2.2-2.3,2.4-3.4c-1.2-0.1-2.2-0.4-3.1-0.9c0.3,0.7,0.5,1.4,0.6,2c0.1,0.9,0.1,1.8-0.1,2.5
			C35.7,70,35.8,69.9,35.8,69.9z"/>
		<path class="st0" d="M5.7,54.3c-0.1,0-0.1,0-0.2,0c-0.3,0-0.5,0-0.7,0c-0.1,0.2-0.3,1-0.3,2.9c0,1.4,0.6,2.4,1.1,2.9
			c0-2.4,1-4.6,1.9-6.1C7,54.2,6.4,54.3,5.7,54.3z"/>
		<path class="st0" d="M74.9,46.7c-1.6-1.4-3.3-2.8-4.1-5.2c-1-3-0.6-4.9-0.4-5.7c-0.5,0-1-0.1-1.5-0.3c-0.5,0.5-1.6,2.1-1.5,5
			c0.1,3.4,2.6,5.7,4.8,7.8c0.2,0.2,0.4,0.3,0.5,0.5c0.4,0.4,0.8,0.7,1.1,1c1.5,1.3,1.9,1.7,1.9,3.3c0,1-0.3,1.7-0.8,2.2
			c-0.6,0.5-1.3,0.6-1.7,0.6c-0.2,0-0.3,0-0.3,0c-0.3,0-0.5-0.3-0.5-0.6c0-0.3,0.3-0.5,0.6-0.5c0,0,0.7,0.1,1.1-0.3
			c0.3-0.3,0.5-0.7,0.5-1.3c0-0.6,0-0.9-0.3-1.3c-0.1-0.1-0.1-0.1-0.1-0.2c-0.7-0.8-1.7-0.7-2.5-0.5C70.3,51.7,69,53,69,54.9
			c0.1,2.4,1.9,4.7,4.2,4.9c2.3,0.1,3.2-0.3,4.5-1.7c1.1-1.3,1.4-2.7,1.3-4.8C78.7,49.9,76.9,48.3,74.9,46.7z"/>
		<path class="st0" d="M76.9,42.9c-0.9-0.8-1.9-1.6-2.7-2.8c-1.4-2.1-1.6-3.6-1.6-4.6c-0.4,0.1-0.8,0.2-1.2,0.3c0,0.1,0,0.1,0,0.2
			c0,0-0.9,1.9,0.3,5.3c0.7,2.1,2.2,3.4,3.8,4.7c1.8,1.5,3.6,3,4.2,5.7c0.1-0.1,0.2-0.1,0.2-0.3c0.3-0.5,0.6-1.5,0.1-3.7
			C79.6,45.2,78.4,44.1,76.9,42.9z"/>
		<path class="st0" d="M73.4,60.9c-0.1,0-0.2,0-0.3,0c-1.9-0.1-3.6-1.6-4.5-3.5c-0.2,0.5-0.5,0.9-0.8,1.2c0.1,0.5,0.5,2.9,1.7,3.8
			c1,0.8,2.2,1.2,3.1,1c0.6-0.1,1-0.4,1.4-0.9c0.4-0.7,0.4-1.3,0.3-1.7C74,60.9,73.7,60.9,73.4,60.9z"/>
		<path class="st0" d="M77.9,39.3c-1.2-1.5-2.6-3.2-3.2-4.8c-0.2,0.2-0.5,0.4-0.8,0.5c-0.1,0.4-0.4,1.9,1.3,4.4
			c0.7,1.1,1.6,1.9,2.5,2.6c0.6,0.6,1.3,1.1,1.9,1.8c0.2-0.8,0.3-2-0.5-3.1C78.7,40.4,78.3,39.9,77.9,39.3z"/>
		<path class="st0" d="M57.5,65.7c-1.1,0.8-2.5,1.3-4.4,1.3c-0.2,0-0.4,0-0.6,0c2.3,1.3,3.9,1.8,3.9,1.8c0,0,0,0,0,0
			c1.5,0.2,3,1.1,3.1,3c0.2,1.7-1,3-2.1,3.2c-0.7,0.1-1.7-0.2-2.1-1.6c-0.1-0.3,0.1-0.6,0.4-0.7c0.3-0.1,0.6,0.1,0.7,0.4
			c0.1,0.4,0.3,0.8,0.8,0.7c0.6-0.1,1.3-0.9,1.2-2c-0.1-1.5-1.5-2.1-2.5-2.1c-0.9,0-2.5,1-2.8,3.3c0.5,1.2,0.7,2.4,0.7,3.5
			c0.2,0.2,0.3,0.4,0.5,0.6c0.9,0.8,2.2,1,3.7,0.8c3.2-0.5,4.8-2.9,4.6-6.4C62.3,67.9,58,65.9,57.5,65.7z"/>
		<path class="st0" d="M67.7,63.4c-2.8-0.4-4.4-1.9-4.9-2.5c-0.8,0-1.8-0.3-2.8-0.8c0,0.4,0.3,2.1,2.1,3.3c0.6,0.4,1.2,0.8,1.8,1.1
			c1.5,0.9,2.9,1.7,3.8,3.5c0.1,0.2,0.2,0.5,0.3,0.7c0.4,0,1.1-0.2,1.9-1.1c0.6-0.7,0.8-1.7,0.5-2.5C70.1,64.2,69.1,63.6,67.7,63.4z
			"/>
		<path class="st0" d="M67.1,69.3c-0.1-0.2-0.2-0.5-0.3-0.8c-0.8-1.5-2-2.2-3.4-3.1c-0.6-0.4-1.2-0.7-1.9-1.2
			c-0.8-0.6-1.4-1.3-1.8-1.9c-0.2,0.9-0.7,1.8-1.4,2.5c1.4,0.7,5,2.8,5.3,6.6c0.1,0.9,0,1.8-0.2,2.6c0.5,0,1.2-0.1,2-0.7
			c0.7-0.5,2.2-1.8,1.7-3.8C67.2,69.5,67.1,69.4,67.1,69.3z"/>
		<path class="st0" d="M76.9,23.4c-0.3-0.3-0.7-0.7-1.1-1.1c-1.1-1.3-1.2-2.6-1.2-3.2c-0.7-0.2-1.3-0.6-1.9-1
			c-0.6,0.8-0.1,2.4,1.4,4.5c0.5,0.7,1.4,2.3,1.7,3.1c0,0,0,0,0,0c0,0,0.5,0.3,2.1,1.9c0.1,0.1,0.5,0.5,0.6,0.7
			c0.1-0.3,0.3-0.9,0.2-1.8C78.6,25.1,77.9,24.4,76.9,23.4z"/>
		<path class="st0" d="M80.4,12.2c-1.1-1.5-2.6-1.7-3.7-1.4c-0.8,0.2-1.4,0.8-1.5,1.5c0,0.1,0,0.3,0,0.4c0.1,0.9,0.4,1.5,1.1,1.6
			c0.6,0.1,1-0.2,1.1-0.5c0.1-0.3,0.4-0.5,0.7-0.4c0.3,0.1,0.5,0.4,0.4,0.7c-0.2,0.8-1,1.4-2,1.4c-0.1,0-0.2,0-0.3,0
			c-0.1,0-0.9-0.2-1.5-0.9C74.2,14,74,13.4,74,12.7c0-0.2,0-0.4,0-0.6c0.1-1.8,1.1-3,2.1-4.1c0.7-0.9,1.5-1.7,2-2.9
			c0.3-0.8,0.5-3.5,0.2-4.5c-0.5,1.8-2.1,3.9-3.2,5.1c-1.6,1.8-3.3,3.6-3.5,5.5c-0.3,2.3,0.1,4.2,1.3,5.5c0.9,1,2.2,1.6,3.5,1.7
			c1.8,0,3.4-0.8,4.1-2.3C81.2,14.8,81.1,13.2,80.4,12.2z"/>
		<path class="st0" d="M77.6,22.7c0.3,0.3,0.5,0.5,0.8,0.8c0.1-0.6,0.2-1.7-0.1-2.7c-0.3-0.8-0.5-1.2-0.6-1.4
			c-0.4,0.1-0.7,0.1-1.1,0.1c-0.1,0-0.1,0-0.2,0c-0.2,0-0.4,0-0.6-0.1c0,0.5,0.1,1.4,0.9,2.2C77,22,77.3,22.3,77.6,22.7z"/>
		<path class="st0" d="M77.9,34.4c-0.3-0.3-0.6-0.7-1-1.2c-0.2-0.2-0.3-0.5-0.5-0.8c-0.2,0.5-0.5,0.9-0.8,1.3c0.3,1.5,1.9,3.4,3.1,5
			c0.1,0.1,0.2,0.2,0.3,0.3c0.3-0.3,0.7-1,0.2-2.5C78.9,35.7,78.5,35.1,77.9,34.4z"/>
		<path class="st0" d="M49.4,70.5c-3.5-2.1-4.1-4.7-4.4-5.8c-0.5,0.4-1.1,0.8-1.7,1c0.2,0.7,0.8,2.5,1.9,4.2c0.7,1.2,1.7,2,2.7,2.8
			c1.3,1.1,2.5,2.1,2.6,3.7c0.1,0.9-0.4,1.8-1.3,2.2c-0.2,0.1-0.4,0.1-0.6,0.1c-0.5,0-0.9-0.2-1.2-0.6c-0.2-0.2-0.1-0.6,0.1-0.8
			c0.2-0.2,0.6-0.1,0.8,0.1c0.2,0.2,0.3,0.3,0.6,0.2c0.3-0.1,0.6-0.5,0.6-1c0-0.4-0.2-0.7-0.4-1c0,0-0.1-0.1-0.1-0.1
			c-0.5-0.7-1.5-1-2.3-0.7c-0.8,0.3-1.7,1.4-1.7,2.8c0,1.4,0.3,2.3,1.2,3c1.1,0.9,2.5,0.9,3.5,0.7c1.5-0.4,2.9-1.8,3.2-3.6
			C53.3,75.5,52.7,72.5,49.4,70.5z"/>
		<path class="st0" d="M76.4,27.5c0.3,1.1,0.4,2.1,0.4,3.1c0,0,0,0.1,0.1,0.1c0,0,0.5,1.2,0.9,1.8c0.3,0.5,0.6,0.8,0.9,1.2
			c0.1,0.1,0.2,0.2,0.3,0.4c0.1-0.1,0.2-0.2,0.3-0.5c0.2-0.6,0-3-1.8-4.9C77.1,28.2,76.7,27.8,76.4,27.5z"/>
		<path class="st0" d="M14.1,50.1c0.1-1.5-0.4-2.9-0.8-3.7c-0.5,1-1,1.7-1.1,1.8c-0.3,1.5-0.9,3.1-2.1,4.2c-0.1,0.1-0.1,0.2-0.2,0.2
			c0,0,0,0,0,0c0,0-3.8,3.9-3.1,8.4c0.4,2.6,1.3,3.6,2,4.1c-0.4-2-0.3-4.4,0.6-6.8c0.8-2.2,2-3.6,2.9-4.7
			C13.3,52.5,14.1,51.5,14.1,50.1z"/>
		<path class="st0" d="M6.4,16.5c2.3-3.5,2.8-5.3,2.7-6.2c0-0.9-0.5-1.5-0.9-1.8C8.2,8.7,8.1,8.8,8.1,9c-0.5,1.4-2.6,4.1-3.8,5.7
			L4,15.1c-1.1,1.4-1.5,2.3-1.1,4c0.2,0.8,0.8,1.3,1.2,1.5C4.9,18.8,5.8,17.3,6.4,16.5z"/>
		<path class="st0" d="M6.6,33.6c1.2,1.1,2.5,2.2,3.5,3.7c1.6,2.4,2.2,4.8,2.4,6.6c0,0,0,0.1,0,0.1c0,0,0,0.2,0,0.5
			c0,0.3,0,0.6,0,0.8c0.7-1.6,1.4-3.7,1.1-5.7c-0.7-4.5-3.3-6.8-3.7-7.1c-3.5-0.6-5.7-3.7-6.3-6.9c-0.1-0.4-0.1-0.9-0.1-1.3
			c-0.5,0.5-1,1.4-1,2.6C2.4,29.9,4.5,31.7,6.6,33.6z"/>
		<path class="st0" d="M47.1,73.6c-1-0.8-2-1.7-2.9-3c-1.1-1.8-1.7-3.5-2-4.4c0.1,0.6,0.1,1.6-0.3,3.2c-0.4,1.2-1.2,2.1-2,2.9
			c0,0,0.1,0,0.1,0c1.6,0,3.7,0.9,4.7,2.9c0.5-0.9,1.2-1.3,1.6-1.4C46.6,73.7,46.8,73.6,47.1,73.6z"/>
		<path class="st0" d="M3.8,13.6c1.2-1.5,2.9-3.9,3.3-5C7.2,8.4,7.3,8,7.4,7.5c0,0,0-0.1,0-0.1c0.3-1.2,0.6-2.8,0.1-4
			c-0.2-0.5-0.6-1.2-1-2c0,2-0.3,4.6-1.7,6.3c-2.3,2.8-2.5,3.4-2,4.7C3.2,13.1,3.5,13.4,3.8,13.6z"/>
		<path class="st0" d="M9.4,51.8c1.9-1.9,2.1-5.3,2.1-6.8c-0.1-1.9-0.5-4.4-2.3-7c-0.9-1.3-2.1-2.4-3.3-3.5c-1.2-1-2.4-2.1-3.2-3.4
			c-0.2,0.5-0.5,1.4-0.4,2.7c0,2,1.3,3,2.7,4.2c0.6,0.5,1.2,1,1.7,1.6c1.9,2.1,3.2,3.9,2.1,7c-0.6,1.6-2,2.3-3.2,2.3
			c0,0-0.1,0-0.1,0c-1,0-1.7-0.6-2-1.4c-0.1-0.3,0.1-0.6,0.4-0.7c0.3-0.1,0.6,0.1,0.7,0.4c0.1,0.5,0.7,0.6,0.9,0.6c0,0,0.1,0,0.1,0
			c0.4-0.1,0.6-0.4,0.6-0.8C6.2,46.1,6.2,45,5,44.2c-1-0.6-2.3-0.5-3.7,0.4c-1.1,0.8-1.6,3.2-1,5C1,52,3,53.2,5.6,53.2
			C7.1,53.3,8.4,52.8,9.4,51.8z"/>
		<path class="st0" d="M3.9,7.4C3.9,7.2,4,7.1,4.1,7c0.4-0.5,0.7-1.1,0.9-1.8C4.8,5.1,4.5,4.9,4,4.5C3.6,4.1,3.2,3.4,3,2.7
			C2.9,3.4,2.8,4.2,2.9,5.1C3,6.4,3.5,7.1,3.9,7.4z"/>
		<path class="st0" d="M4.1,42.8c0.5,0.1,1.1,0.3,1.6,0.6c1.3,1,1.6,2.2,1.5,3.5c0.2-0.2,0.3-0.5,0.4-0.8c0.9-2.6-0.1-4-1.9-5.9
			c-0.5-0.5-1-1-1.6-1.5c-0.4-0.3-0.7-0.6-1.1-0.9c-0.2,0.4-0.6,1.1-0.6,2.2C2.6,41.8,3.7,42.5,4.1,42.8z"/>
		<path class="st0" d="M34.7,67.7c-0.1-1.1-0.8-2.7-1.4-3.8c0,0-0.1-0.1-0.1-0.1c-0.2-0.3-4.1-7.1-5-8.9c-1.2-2.4-1.4-4.7-0.6-6.7
			c0.4-1,1-2,1.8-2.7c-0.4,0-0.9,0.1-1.6,0.3c-2.3,0.6-3.6,4.2-3.5,6.3c0.1,2.1,1.5,5.2,3.7,9.6c1.6,3.4,2.8,5.8,3.1,7.8
			c0.1,0.6,0.1,1.5,0,2c-0.4,2.1-1.7,2.8-2.4,3c-0.3,0.1-0.6,0.1-0.8,0.1c-0.7,0-1.5-0.3-1.9-0.8c-0.5-0.5-0.6-1.1-0.5-1.7
			c0.1-0.3,0.4-0.4,0.7-0.4c0.3,0.1,0.4,0.4,0.4,0.7c-0.1,0.2,0,0.4,0.2,0.6c0.3,0.3,1,0.6,1.7,0.4c0.8-0.2,1.4-1,1.6-2.2
			c0.1-0.5,0.1-1,0-1.5c-0.1-0.5-0.7-1.8-2.6-2.2c-1.1-0.2-2.4,0.1-3.5,0.9c-1.2,0.9-2,2.4-2.1,3.9c-0.2,2.9,1.1,6.2,5,6.6
			c3.1,0.3,4.7-1.9,5.1-2.5c0.3-1.9,1-3.1,2.3-4.6C34.4,71.3,34.9,69.6,34.7,67.7z"/>
		<path class="st0" d="M20.7,72.2c0.1-1.9,1-3.6,2.5-4.7c0.3-0.3,0.7-0.5,1-0.7c-0.6-0.3-1.7-0.7-2.9-0.6c-0.1,0-0.2,0-0.3,0
			c-0.3,0.1-0.7,0.2-1,0.4c-0.9,0.6-1.6,1.6-1.9,3.1c-0.4,1.7-0.2,3.1,0.6,4.2c0.7,1,1.7,1.6,2.6,2C20.8,74.9,20.6,73.6,20.7,72.2z"
			/>
		<path class="st0" d="M15.4,66c0,0-0.7,0.3-1,2.3c-0.2,1.1,0,2,0.5,2.6c0.5,0.7,1.3,1,1.9,1.2c-0.1-0.8,0-1.6,0.2-2.5
			c0.2-1.1,0.6-2,1.1-2.6C17.2,66.9,16.3,66.5,15.4,66z"/>
		<path class="st0" d="M14.6,65.2c-0.8-0.8-1.6-2.1-1.6-4.2c-0.1-3.5,1.7-5.3,3.3-6.9c1.1-1.2,2.1-2.2,2.2-3.6
			c0.1-2.3-2.1-5.2-2.1-5.3c0,0,0,0,0,0c-0.8-0.6-1.5-1.3-1.9-2c-0.2,0.7-0.4,1.3-0.6,1.9c0.1,0.2,1.4,2.4,1.3,5
			c-0.1,1.7-1,2.9-2.1,4.2c-0.9,1.1-2,2.4-2.8,4.4c-1.6,4.3-0.4,8.4,1.2,9.5c0.7,0.5,1.4,0.5,1.8,0.4c0-0.2,0-0.4,0.1-0.6
			C13.6,66.4,14.2,65.6,14.6,65.2z"/>
		<path class="st0" d="M44.2,77.3c-0.2-2.6-2.5-3.9-4.1-3.9c-0.7,0-1.3,0.3-1.8,0.8c-0.4,0.4-0.6,0.9-0.7,1.4c0,0.1,0,0.1,0,0.1
			c0,0.2,0,0.3,0,0.5c0,0.8,0.3,1.3,0.6,1.6c0.7,0.4,1.8,0.3,2-0.3c0.1-0.3,0.7-0.3,0.8,0c0.1,0.3,0,0.5-0.1,0.8
			c-0.3,0.4-1.9,1.2-3.2,0.5c-0.7-0.4-1.4-1.2-1.4-2.4c0.1-2.4,1.2-3.2,2.3-4.1c1-0.8,1.9-1.7,2.3-3c0.5-1.5,0.4-2.3,0.3-2.7
			c-0.6,0.1-1.2,0.1-1.8,0.1c0,0,0,0,0,0c0,0,0,0.1,0,0.2c-0.2,0.8-0.6,1.5-1.1,2.1c-0.4,0.6-1.1,1.3-1.9,2.1
			c-1.9,1.7-3.1,3.4-3.4,5.4c-0.1,1.2-0.1,3.1,1.2,4.6c1.1,1.2,2.5,2,4.5,2c3.3,0,5.3-1.9,5.5-4.7C44.2,78.2,44.2,77.6,44.2,77.3z"
			/>
		<path class="st0" d="M58.9,60.4c0-0.5-0.1-1-0.2-1.4c0-0.1-0.1-0.2-0.1-0.3c-0.2-0.4-0.4-0.7-0.7-1.2c-0.8-0.9-2-1.3-3.1-1.3
			c-1.3,0-2.2,0.8-2.5,1.4c-0.5,1-0.5,2.4,0,3.2c0,0.1,0.1,0.1,0.1,0.1c0.5,0.6,1.1,0.6,1.4,0.7c0.1,0,0.2,0,0.3,0
			c0.7,0,1.3-0.3,1.4-0.8c0.2-0.4,0.1-0.9-0.2-1.2c-0.2-0.2-0.4-0.3-0.7-0.2c-0.3,0.1-0.6-0.1-0.7-0.3c-0.1-0.3,0.1-0.6,0.3-0.7
			c0.7-0.2,1.3,0,1.8,0.4c0.6,0.6,0.7,1.5,0.4,2.3c-0.3,0.9-1.2,1.4-2.4,1.5c-1.2,0.1-2.1-0.4-2.7-1.3c0,0,0-0.1-0.1-0.1
			c0,0,0,0,0-0.1c0,0,0,0,0-0.1c-0.5-1-0.6-2.4-0.3-4.1c0.3-1.8,1.3-3.1,2.2-4.4c1-1.4,2-2.7,2.1-4.5c0.1-1.5-0.2-2.2-0.9-2.6
			c-0.2-0.1-0.6-0.2-0.9-0.3c-0.6-0.1-1-0.1-1.3,0c0,0,0,0,0,0c0.6,0.8,0.8,1.8,0.6,3.2c-0.2,1.1-1.2,2.6-2.4,4.3
			c-1.3,1.8-2.8,3.2-2.9,6.2c-0.1,2,0.8,4,2.1,5.3c1,1.1,2.1,1.5,3.5,1.5C57.4,65.8,58.9,63,58.9,60.4z"/>
		<path class="st0" d="M12,17.5c-0.1,0.2-0.2,0.4-0.3,0.6c-0.4,0.7-0.9,1.3-1.3,1.9c-0.7,0.9-1.5,2-1.8,3c0.4-0.6,1-1.2,1.6-1.5
			c0.9-0.4,1.7-0.6,2.5-0.6c0.1-0.3,0.3-1,0.2-1.9C12.7,18.2,12.3,17.7,12,17.5z"/>
		<path class="st0" d="M16.4,25.4c-0.1-1.2-0.8-2.4-1.5-2.9c-0.4-0.3-0.8-0.5-1.3-0.6c-0.8-0.1-1.9-0.1-3,0.5
			c-0.8,0.4-1.5,1.2-1.8,2C8.6,25,8.7,25.7,9,26.4l0,0c0.3,0.5,0.8,0.8,1.3,0.9c0.7,0.2,1.3-0.1,1.5-0.4c0.5-0.8,0.3-1.5,0.3-1.5
			c-0.1-0.3,0.1-0.5,0.3-0.6c0.3-0.1,0.5,0.1,0.6,0.3c0,0,0.4,1.2-0.4,2.4c-0.4,0.6-1.1,0.9-1.9,0.9c-0.2,0-0.4,0-0.6-0.1
			c-0.6-0.1-2.1-0.7-2.5-3.3c-0.2-1.1-0.1-1.9,0.1-2.7c0.2-0.8,0.8-1.8,1-2.1c0.2-0.3,0.5-0.7,0.8-1c0.3-0.4,0.7-0.9,1-1.4
			c0.6-1.2,0.6-2.3-0.1-3.7c-0.4-0.8-0.7-1.1-0.8-1.3c-0.5,1.2-1.3,2.6-2.3,4.2c-1,1.5-3.4,4.8-2.6,8.5c0.7,3.1,2.8,6.1,6.6,5.9
			c1,0,1.8-0.3,2.5-0.7c0,0,0.1,0,0.1-0.1c0.4-0.2,0.7-0.5,1-0.8C16.1,28.5,16.5,27.1,16.4,25.4z"/>
	</g>
	<path class="st0" d="M123.2,14c3.7,0,7.9,2.2,7.9,8.5v9.4c0,2.5-0.6,4.4-2.7,5.9c2.1,1.5,2.7,3.4,2.7,5.9v10.2
		c0,6.3-4.1,8.5-7.9,8.5H113V14H123.2z M123.8,22.9c0-1.5-0.4-2.1-1.5-2.1h-1.7v14.1h1.8c1,0,1.4-0.6,1.4-2.1V22.9L123.8,22.9z
		 M123.8,43.2c0-1.5-0.4-2.1-1.4-2.1h-1.8v14.4h1.7c1,0,1.5-0.7,1.5-2.1C123.8,53.4,123.8,43.2,123.8,43.2z M135.1,62.3V14h15.8v7
		h-8.2v13.2h5.5v6.6h-5.5v14.6h8.2v7H135.1z M161.7,54.1l-1,8.3H154l6.5-48.4h7.1l6.5,48.4h-7.4l-0.7-8.3H161.7L161.7,54.1z
		 M165.2,47.2l-1.2-13.4l-1.5,13.4H165.2L165.2,47.2z M196.7,62.3h-7.2c-0.7-1.9-1-3.8-1-7.5V44.3c0-1.4-0.4-2.2-1.7-2.2h-1.7v20.2
		h-7.6V14h10.2c3.7,0,7.9,2.2,7.9,8.5v11c0,2.3-0.6,4.1-2.5,5.4c2,1.3,2.8,3.1,2.8,5.5v9.8C195.8,57.3,196.2,60,196.7,62.3
		L196.7,62.3z M188.3,22.9c0-1.5-0.4-2.1-1.5-2.1h-1.7v14.9h1.8c1,0,1.4-0.6,1.4-2.1V22.9L188.3,22.9z M210.5,62.3h-10V14h10
		c4.6,0,8.8,2.7,8.8,9.4v29.8C219.3,60,215.1,62.3,210.5,62.3L210.5,62.3z M211.8,23.4c0-1.7-0.7-2.5-2-2.5h-1.7v34.5h1.7
		c1.3,0,2-0.8,2-2.5V23.4L211.8,23.4z M223.2,62.4V14H239v7h-8.2v13.2h5.5v6.6h-5.5v14.6h8.2v7L223.2,62.4L223.2,62.4z M252.2,62.4
		h-10V14h10c4.6,0,8.8,2.7,8.8,9.4v29.8C261,60,256.8,62.3,252.2,62.4L252.2,62.4z M253.5,23.4c0-1.7-0.6-2.5-2-2.5h-1.8v34.5h1.7
		c1.3,0,2-0.8,2-2.5L253.5,23.4L253.5,23.4z"/>
</g>
</svg>
